<?xml version="1.0" standalone="no"?>
<!DOCTYPE svg PUBLIC "-//W3C//DTD SVG 20010904//EN"
 "http://www.w3.org/TR/2001/REC-SVG-20010904/DTD/svg10.dtd">
<svg version="1.0" xmlns="http://www.w3.org/2000/svg"
 width="736.000000pt" height="736.000000pt" viewBox="0 0 736.000000 736.000000"
 preserveAspectRatio="xMidYMid meet">
<metadata>
Created by potrace 1.11, written by Peter Selinger 2001-2013
</metadata>
<g transform="translate(0.000000,736.000000) scale(0.100000,-0.100000)"
fill="#000000" stroke="none">
<path d="M2318 7355 c-2 -1 -25 -5 -53 -8 -27 -3 -61 -8 -75 -11 -14 -3 -38
-8 -55 -11 -69 -14 -226 -71 -310 -112 -86 -43 -213 -126 -279 -182 -99 -84
-237 -235 -334 -366 -76 -103 -194 -321 -289 -535 -31 -70 -79 -216 -103 -315
-25 -103 -28 -122 -46 -260 -14 -116 -23 -417 -13 -473 3 -20 -2 -26 -35 -37
-58 -20 -108 -65 -138 -125 -27 -51 -28 -58 -23 -166 3 -62 7 -132 9 -156 6
-50 16 -158 21 -208 1 -19 6 -57 9 -85 3 -27 8 -72 11 -100 7 -68 15 -132 22
-180 7 -57 10 -82 18 -150 4 -33 9 -69 12 -80 2 -11 6 -36 8 -55 2 -19 7 -46
10 -60 3 -14 7 -41 10 -60 8 -61 17 -124 21 -145 4 -21 9 -45 25 -140 6 -33
12 -71 15 -85 21 -109 26 -137 28 -150 2 -8 6 -28 9 -45 4 -16 9 -41 12 -55 5
-28 23 -114 30 -145 2 -11 13 -57 24 -102 11 -45 22 -92 25 -105 24 -126 191
-696 236 -803 14 -33 23 -59 26 -73 1 -7 12 -33 23 -58 12 -24 21 -48 21 -54
0 -6 10 -32 21 -58 12 -26 27 -60 34 -77 56 -132 148 -321 200 -410 19 -33 38
-67 42 -75 18 -34 68 -115 74 -120 3 -3 13 -18 22 -35 13 -26 25 -42 67 -92 5
-7 10 -15 10 -19 0 -3 12 -21 27 -38 16 -18 44 -52 63 -77 45 -57 269 -279
281 -279 6 0 20 -11 33 -25 13 -14 26 -25 30 -25 3 0 27 -15 53 -34 27 -18 73
-46 103 -62 30 -16 57 -31 60 -34 9 -9 147 -59 324 -117 69 -23 212 -19 296 9
204 65 265 90 385 158 159 89 379 285 495 440 14 19 32 41 40 50 9 9 52 70 95
136 105 158 104 157 112 174 3 8 29 56 56 105 40 71 69 107 136 170 127 118
697 689 766 768 33 38 74 83 90 100 46 50 146 164 215 247 35 41 68 80 74 87
6 7 16 18 21 25 6 7 53 67 105 133 105 132 192 248 252 334 50 72 210 311 223
333 6 10 35 59 65 110 59 98 66 111 119 210 54 99 95 182 97 196 1 8 10 22 18
31 9 10 16 24 16 32 0 8 4 19 8 25 5 5 16 28 25 51 9 23 25 61 36 85 16 37 30
71 36 88 1 3 7 18 14 34 14 34 91 264 96 286 2 8 12 49 23 90 27 102 50 216
68 330 3 24 17 143 18 165 1 11 5 25 8 30 4 6 3 17 -1 24 -5 7 -5 29 -2 49 14
77 3 368 -20 517 -6 39 -12 82 -14 96 -8 54 -66 263 -84 304 -5 11 -27 59 -49
106 -102 224 -280 421 -494 547 -68 39 -242 117 -283 126 -5 2 -30 8 -55 15
-25 7 -52 15 -60 16 -8 2 -35 8 -60 14 -25 5 -70 12 -100 16 -30 3 -73 8 -95
12 -82 13 -427 6 -542 -12 -22 -3 -58 -7 -79 -10 -64 -6 -339 -61 -353 -69 -7
-5 -50 -14 -91 -21 -8 -1 -22 -5 -30 -8 -26 -10 -86 -27 -107 -31 -10 -2 -36
-11 -56 -20 -21 -8 -41 -15 -45 -16 -4 0 -22 -5 -40 -11 -35 -11 -59 -2 -107
43 -30 29 -302 208 -314 208 -6 0 -11 3 -11 8 0 4 -10 12 -23 18 -12 6 -69 35
-127 65 -58 30 -136 68 -175 84 -38 16 -74 32 -80 37 -5 4 -19 8 -31 8 -13 0
-25 4 -28 9 -3 5 -27 14 -53 21 -27 8 -50 14 -53 15 -27 8 -96 27 -97 27 -2
-1 -17 4 -35 9 -18 5 -46 12 -63 14 -16 3 -57 11 -90 17 -53 10 -368 21 -377
13z m363 -499 c47 -9 115 -26 150 -37 35 -12 69 -22 74 -24 33 -7 252 -104
300 -132 22 -13 56 -31 75 -41 19 -9 37 -20 38 -24 2 -5 10 -8 17 -8 7 0 15
-3 17 -8 2 -4 40 -31 86 -60 46 -29 89 -57 95 -62 12 -11 112 -89 204 -161 57
-45 119 -67 173 -63 47 3 63 8 145 39 57 22 164 58 210 71 77 22 319 83 345
87 19 3 44 8 55 10 11 2 42 8 68 11 27 4 56 9 65 11 125 24 474 24 587 0 6 -1
28 -5 50 -10 194 -37 393 -148 496 -276 162 -201 232 -463 230 -859 0 -85 -2
-171 -4 -190 -2 -19 -7 -64 -11 -100 -4 -36 -11 -83 -16 -105 -5 -22 -12 -56
-15 -75 -12 -71 -58 -245 -68 -257 -5 -7 -7 -13 -4 -13 8 0 -42 -144 -93 -270
-36 -90 -177 -383 -228 -475 -90 -160 -248 -412 -278 -442 -8 -8 -14 -18 -14
-23 0 -5 -6 -15 -13 -22 -7 -7 -21 -26 -31 -43 -47 -74 -341 -455 -370 -480
-7 -5 -19 -20 -27 -32 -15 -21 -75 -92 -129 -152 -14 -16 -52 -59 -85 -97 -33
-37 -77 -86 -99 -108 -21 -23 -51 -56 -68 -75 -16 -18 -31 -31 -34 -29 -2 3 3
27 11 54 8 27 14 49 13 49 0 0 6 25 15 55 9 30 18 66 20 80 3 14 12 52 20 85
9 33 18 71 21 85 2 14 11 52 20 85 8 33 17 74 20 90 3 17 7 41 11 55 5 22 15
71 30 150 3 14 7 36 10 50 10 48 15 75 21 110 3 19 7 42 9 50 3 8 7 33 10 55
3 22 8 51 10 65 3 14 7 43 10 65 3 22 8 51 11 65 10 56 12 67 18 115 4 28 9
64 12 80 3 17 7 44 9 60 2 17 6 46 9 65 3 19 8 58 10 85 3 28 8 61 10 75 7 37
16 112 22 177 2 32 6 72 8 88 23 199 40 418 39 497 -2 86 -63 182 -132 210
-29 11 -145 47 -176 54 -11 2 -72 20 -135 39 -195 60 -244 75 -261 79 -21 6
-309 105 -334 116 -11 5 -47 18 -80 30 -33 12 -65 26 -72 32 -7 6 -13 8 -13 5
0 -6 -46 11 -95 33 -11 5 -67 30 -125 56 -105 46 -281 133 -290 143 -5 6 -38
26 -77 46 -46 24 -149 109 -178 147 -98 128 -146 158 -245 153 -91 -4 -146
-37 -209 -128 -108 -157 -496 -359 -1091 -568 -96 -33 -186 -62 -200 -63 -24
-1 -25 1 -23 64 2 97 12 242 18 270 3 14 8 41 11 60 3 19 7 41 10 49 2 8 7 30
10 49 8 53 61 207 102 297 111 246 233 435 371 575 170 173 321 256 541 298
69 13 285 7 381 -12z"/>
</g>
</svg>
